P2
100 50
255
155 150 139 121 116 121 128 137 146 145 127 95 89 91 101 115 113 110 117 127
123 127 132 137 146 151 155 159 159 165 175 183 189 195 204 215 220 216 215 211
204 200 195 196 194 194 190 186 183 180 179 171 169 165 163 161 153 155 157 165
173 173 169 169 167 165 162 161 161 159 158 162 166 169 172 175 179 179 174 168
156 154 157 162 196 219 219 217 214 213 212 213 213 211 215 218 218 219 209 194
157 151 138 132 127 127 132 140 147 144 128 99 90 93 106 117 111 117 121 128
122 126 135 137 144 150 153 157 157 167 179 187 190 196 212 217 222 220 219 214
207 207 197 194 194 193 190 185 184 181 173 172 167 163 155 150 147 144 144 149
154 160 158 155 154 152 150 149 146 148 143 147 148 143 146 150 144 137 129 130
131 141 147 167 204 227 227 227 222 212 207 206 209 211 217 219 223 215 205 190
157 148 139 130 124 126 134 143 150 146 133 101 90 97 112 119 115 122 124 127
121 121 133 136 140 148 150 154 160 167 178 185 188 193 199 210 212 214 213 209
205 204 195 189 189 182 178 169 170 170 159 163 160 158 154 148 145 142 142 142
145 147 143 141 140 139 136 135 132 134 135 130 124 118 120 119 119 114 109 107
109 119 132 147 186 209 220 221 216 207 204 202 204 207 212 214 218 216 209 189
154 147 136 132 127 129 134 143 151 149 142 107 98 106 110 119 122 128 125 129
123 126 136 136 144 157 160 165 168 175 179 184 192 195 200 201 201 207 212 212
207 201 189 177 163 154 147 149 148 148 148 141 140 141 143 142 138 130 130 129
129 131 128 128 126 125 122 126 121 123 117 108 102 95 92 87 86 91 95 97
104 113 129 147 184 207 221 220 218 212 210 207 208 211 215 216 220 214 205 191
153 144 136 134 129 131 132 143 150 152 146 115 96 94 100 111 124 131 129 128
124 132 137 137 144 154 158 165 172 179 185 186 187 190 193 189 191 200 212 215
213 198 174 161 151 136 131 127 123 121 117 111 115 116 115 120 126 120 119 121
117 120 124 129 126 121 118 124 119 113 104 94 84 80 82 86 95 101 104 108
117 117 131 158 190 213 221 218 214 209 216 212 208 208 214 222 222 214 209 197
157 146 141 138 133 132 131 143 151 150 147 120 94 95 106 118 126 129 127 125
121 132 135 138 151 155 162 168 176 179 179 179 183 187 191 187 189 201 207 204
189 170 153 145 129 118 107 98 98 98 96 93 94 92 91 98 108 105 107 109
109 112 117 126 126 119 114 111 102 99 88 87 86 94 102 110 114 116 117 120
123 132 135 152 191 209 220 218 215 214 219 219 214 210 212 218 219 215 211 206
156 147 139 133 126 130 131 139 149 148 142 118 98 111 125 129 131 132 129 119
119 138 141 142 152 159 166 171 180 183 182 183 186 189 190 191 196 204 194 176
155 146 135 129 119 112 100 97 91 87 79 78 77 77 84 87 92 94 98 103
106 113 113 116 119 111 104 98 89 83 78 81 83 93 98 101 105 110 115 115
123 130 137 150 191 209 208 212 218 219 222 221 216 213 210 214 215 217 218 212
141 143 139 135 129 126 124 129 140 146 144 128 104 129 152 151 144 145 136 124
127 137 143 143 153 162 174 182 188 186 186 186 186 187 190 194 192 187 174 153
135 130 123 119 111 106 102 91 89 83 67 61 65 75 80 81 85 90 95 99
104 113 119 116 120 102 94 92 84 82 73 57 53 41 39 42 56 64 80 98
110 120 137 151 195 211 208 211 216 221 221 221 221 218 212 210 214 213 217 217
127 135 136 129 123 119 121 126 138 143 145 132 109 127 146 145 143 144 127 127
134 144 145 145 152 155 171 189 191 196 197 199 193 191 193 188 181 169 152 133
122 115 116 110 99 90 75 61 51 48 40 42 45 59 72 80 86 93 101 107
108 118 130 135 142 125 112 95 82 74 70 101 94 60 52 58 55 56 63 76
97 112 129 147 185 205 208 213 220 226 226 227 225 220 216 212 212 213 214 219
123 131 134 130 123 118 112 114 128 145 146 137 116 125 136 136 137 145 139 146
144 143 139 145 157 171 189 201 206 205 204 204 205 204 205 198 179 155 135 126
118 114 100 89 76 71 67 63 60 63 63 57 61 60 64 72 83 97 108 114
120 129 140 152 152 140 120 99 89 81 79 110 95 68 51 66 67 65 63 69
89 115 132 145 180 205 209 215 221 223 223 223 222 219 213 210 209 213 213 215
131 135 132 130 124 120 114 110 123 139 148 141 118 117 119 117 116 120 126 132
142 143 137 148 155 167 188 200 207 209 206 205 205 201 196 178 155 134 119 112
106 103 79 68 72 90 85 69 46 46 67 69 70 70 75 77 83 94 118 118
114 125 139 151 159 148 131 109 102 90 108 121 114 109 108 117 118 122 107 88
95 115 137 148 180 204 213 220 224 218 220 220 218 217 217 216 213 212 209 215
131 137 137 127 122 115 112 110 121 138 144 137 128 132 135 126 114 118 137 138
147 148 148 151 159 173 185 195 204 203 203 203 195 188 186 160 141 132 131 120
98 79 75 77 88 102 121 119 93 85 88 97 86 82 81 90 97 105 121 118
117 129 143 154 158 154 149 148 135 117 115 118 130 136 145 148 142 147 154 152
143 137 145 156 187 213 214 218 216 204 201 202 208 210 213 214 210 211 211 213
136 144 142 127 122 117 112 108 121 136 148 165 188 190 188 179 176 170 165 152
148 146 147 151 161 177 180 192 207 204 199 196 194 188 186 175 160 144 129 101
82 82 94 103 114 123 131 135 145 157 158 149 140 135 132 128 126 121 120 113
113 121 135 149 160 163 164 152 149 135 125 121 126 136 153 170 171 177 175 166
164 162 159 158 189 214 216 217 208 192 182 187 196 201 205 210 207 210 211 210
134 139 139 131 124 117 114 107 117 135 159 194 199 187 175 171 170 166 161 158
148 141 141 145 160 170 178 191 200 200 203 204 201 192 179 164 144 128 119 122
145 164 173 181 191 186 180 184 176 175 169 156 147 141 147 146 131 127 124 119
123 126 139 152 162 165 165 156 152 135 120 115 106 103 109 120 127 134 146 155
158 161 171 165 186 212 203 203 195 182 171 175 180 185 186 188 198 208 210 206
134 138 138 132 124 117 111 105 117 136 164 171 145 123 117 118 131 144 157 162
159 140 144 154 166 169 179 193 200 201 199 202 199 188 176 151 139 140 153 163
153 160 170 168 167 172 165 160 155 155 147 140 137 138 131 132 129 131 126 120
124 138 159 167 166 168 170 161 163 162 143 134 122 114 111 116 123 129 132 137
139 148 154 159 175 200 196 187 180 172 163 162 171 175 177 178 191 206 211 212
141 145 143 134 126 119 112 114 122 134 160 144 113 109 113 120 125 130 135 155
164 161 141 148 159 157 170 191 193 201 197 194 191 185 180 182 188 185 171 156
155 154 150 144 150 149 141 133 128 121 125 118 128 134 143 152 139 139 133 136
147 171 175 173 166 166 167 166 162 168 170 168 165 149 149 146 150 158 164 168
170 165 159 162 167 185 184 170 167 168 166 164 170 178 184 184 192 207 214 214
152 150 148 138 130 124 115 116 124 139 156 126 104 115 121 130 136 137 141 146
148 153 137 143 157 157 167 181 193 195 201 204 204 202 201 197 187 176 168 178
179 176 176 169 161 149 140 138 133 137 142 153 151 151 150 142 145 150 155 164
177 189 187 184 189 180 172 169 164 160 163 168 171 169 173 169 169 173 171 173
172 171 173 168 163 173 172 160 154 156 160 158 168 179 186 193 204 212 216 221
161 151 145 140 129 127 126 125 136 144 152 120 106 119 121 133 142 145 146 154
148 153 143 141 148 161 160 175 191 195 199 203 203 202 199 186 174 173 190 189
188 186 186 187 189 182 179 176 166 165 166 164 164 161 154 160 165 174 183 193
196 193 194 197 200 192 184 182 168 164 164 174 178 175 172 170 165 168 173 175
181 182 176 170 160 162 161 153 151 155 155 154 161 176 184 195 201 213 218 222
162 153 144 136 130 131 129 134 144 153 157 128 108 119 136 166 180 188 192 183
165 167 165 154 146 153 159 171 186 200 205 210 212 210 205 194 188 203 202 191
188 189 185 186 183 178 177 177 176 178 180 182 182 177 177 175 178 180 188 200
203 205 207 205 196 187 181 177 174 169 166 169 175 178 181 183 182 182 185 186
185 181 172 165 160 162 163 156 154 162 160 157 157 168 177 189 204 214 219 217
154 149 147 134 132 133 133 139 151 161 166 139 104 111 135 171 163 161 156 145
144 166 179 172 162 163 174 185 188 198 202 207 208 205 204 194 195 202 195 199
196 187 177 173 174 170 174 176 176 177 174 181 172 159 162 148 149 161 179 195
205 207 210 206 198 189 180 185 186 179 154 143 148 165 172 180 182 183 182 182
181 174 165 163 155 158 158 154 152 164 165 156 155 161 168 185 198 213 216 221
154 147 142 134 130 130 134 142 155 158 162 148 116 112 137 168 149 132 129 117
135 170 188 198 190 186 190 196 201 201 201 201 202 199 195 190 197 201 199 200
195 187 179 176 173 173 172 176 177 175 173 163 160 156 153 149 149 178 196 191
199 214 211 202 196 186 175 182 179 172 158 148 140 142 156 164 172 179 179 180
176 172 159 156 149 149 163 161 163 162 164 159 150 160 164 178 198 210 213 210
154 145 142 135 129 132 133 143 153 154 160 154 125 116 127 158 142 120 126 122
138 167 202 213 204 195 197 200 199 198 198 199 199 193 190 187 196 200 199 196
193 189 185 180 178 177 174 173 172 169 166 156 154 151 153 146 158 187 186 187
198 209 200 186 174 166 157 156 156 158 158 159 146 136 143 154 160 164 166 171
173 171 163 155 152 153 173 176 171 170 163 155 151 163 171 188 201 212 212 205
154 146 142 134 128 129 126 133 148 157 159 160 139 123 124 155 143 118 129 128
152 188 216 222 213 194 195 193 193 194 192 193 194 184 184 185 193 198 192 192
192 189 188 186 180 175 170 165 163 159 158 157 154 144 141 134 158 199 201 204
202 187 172 159 148 144 138 137 142 148 158 162 141 119 114 130 140 150 159 162
162 161 158 152 149 157 188 196 193 187 179 179 183 192 195 206 211 212 209 207
153 149 138 133 124 126 132 138 147 153 157 156 155 138 126 145 145 120 121 133
159 209 225 224 219 199 197 191 191 189 186 184 191 188 181 183 187 187 183 181
183 187 190 186 178 170 162 154 155 156 153 151 141 131 127 126 159 186 176 164
150 140 130 129 130 120 114 130 133 134 128 127 127 111 94 102 121 136 144 148
158 159 157 156 151 160 190 205 202 207 208 207 213 216 217 217 218 212 209 209
157 151 142 129 118 122 123 132 142 148 153 147 151 149 131 138 147 114 121 128
150 191 204 208 216 204 201 194 191 189 186 184 182 180 180 180 178 172 179 180
178 173 170 168 162 159 159 152 153 149 145 132 123 117 114 110 137 152 130 99
72 50 47 60 85 104 109 109 99 76 61 80 95 110 95 83 99 117 124 136
146 147 147 144 143 156 193 213 215 222 222 222 226 225 222 220 214 210 206 214
160 154 144 125 114 118 128 135 144 148 151 140 148 159 151 136 152 119 115 130
144 167 181 201 212 200 198 192 192 190 189 186 183 182 182 179 170 170 167 166
161 154 152 151 150 148 146 142 145 141 130 114 115 115 108 103 101 100 85 61
51 54 60 75 95 108 106 99 84 72 75 100 121 123 111 89 87 108 118 132
140 140 143 144 143 160 199 214 219 227 227 225 225 220 215 212 208 210 211 216
159 152 138 125 112 114 123 135 145 148 147 140 137 149 154 144 148 147 128 128
149 157 169 190 203 199 192 189 186 187 182 183 184 179 175 175 166 166 165 161
154 155 149 144 138 138 139 137 139 134 117 108 110 109 111 109 107 105 99 99
94 92 93 96 106 99 105 106 117 120 123 138 139 127 114 92 77 94 105 119
128 130 131 140 144 164 196 207 214 228 228 228 227 221 214 211 208 213 217 216
158 152 141 127 117 117 121 129 138 147 143 136 132 144 157 156 156 171 174 188
186 164 166 188 199 191 195 192 184 187 188 186 185 178 172 173 163 159 160 151
147 137 133 131 129 134 133 128 126 106 99 104 109 108 110 113 116 111 113 128
134 122 110 98 88 80 94 115 124 130 133 138 135 126 118 101 80 87 97 108
117 124 127 136 140 162 196 204 213 225 225 225 221 220 213 209 207 212 220 216
158 152 141 125 114 114 123 131 138 148 141 134 130 138 154 160 151 151 167 185
181 160 170 185 194 196 194 193 188 187 189 189 183 175 166 163 162 163 154 148
140 132 126 127 126 128 127 119 111 99 102 109 110 109 113 112 111 108 115 124
133 127 120 105 102 105 118 132 133 129 139 144 142 126 115 102 82 83 96 103
109 121 130 134 140 168 191 198 208 222 222 222 220 217 208 205 204 211 216 212
160 155 145 131 123 123 127 132 141 149 142 135 132 139 152 161 162 164 168 197
197 187 193 196 196 193 192 190 192 195 194 190 188 176 163 165 163 152 145 138
129 127 124 121 124 122 118 111 97 102 114 111 108 112 114 112 114 112 118 127
129 130 124 115 129 131 127 142 146 142 140 144 142 135 128 113 89 84 92 96
106 118 125 132 141 173 200 200 203 218 220 222 217 210 203 201 207 210 209 202
154 153 144 131 124 126 128 132 140 146 147 140 134 140 151 162 169 178 179 194
197 190 186 191 195 193 196 195 194 195 196 192 194 181 169 167 165 154 148 137
130 122 121 117 115 112 107 101 97 107 112 110 106 111 112 113 114 113 118 125
125 127 126 126 142 140 133 142 146 146 146 148 145 139 132 120 105 86 86 101
109 119 124 133 143 174 201 197 202 214 216 219 214 207 203 201 207 205 199 188
153 150 145 136 129 129 132 139 145 149 150 144 140 145 154 159 169 182 187 204
198 193 182 194 197 190 191 194 193 194 196 199 195 183 171 171 166 156 149 137
130 123 121 124 116 111 105 101 105 114 110 111 108 113 115 115 122 121 122 132
136 136 143 145 155 158 152 154 144 142 142 141 135 138 134 128 113 92 89 105
113 123 131 136 147 179 209 207 210 214 217 220 210 206 205 204 207 204 198 183
150 145 140 136 129 129 129 134 143 146 147 143 144 148 156 158 159 170 188 204
195 188 183 205 192 182 190 192 191 188 192 193 193 185 172 169 165 155 143 132
122 122 129 133 127 112 104 108 112 115 111 117 113 119 123 123 129 129 128 136
134 133 137 139 140 145 144 139 136 137 134 129 126 126 125 121 114 106 95 102
114 124 135 137 151 187 212 211 211 199 199 201 204 203 207 208 210 207 199 181
155 148 143 140 132 131 131 135 146 155 156 150 147 153 159 160 161 168 172 192
197 191 194 203 176 178 195 186 189 192 195 198 198 190 181 174 168 162 143 133
124 119 133 140 130 113 109 113 119 114 115 111 114 112 116 118 123 119 119 114
113 102 99 104 104 105 111 113 119 124 118 116 116 119 120 121 118 115 104 105
129 131 139 137 153 188 211 209 213 206 195 195 202 206 211 215 211 206 193 179
154 145 141 137 129 130 129 133 144 154 158 156 156 157 160 163 164 167 166 170
176 176 186 178 151 167 184 176 185 188 191 195 196 191 183 175 167 154 145 141
126 128 143 147 138 119 115 117 115 108 105 112 114 108 108 107 104 101 100 102
99 99 103 105 99 105 106 104 108 104 100 95 100 99 96 101 110 118 119 112
131 135 140 143 155 192 212 210 212 202 194 192 196 202 208 214 216 208 197 179
150 144 139 134 126 127 126 131 141 151 158 158 159 161 161 158 161 161 156 160
157 157 160 145 130 152 173 173 181 186 189 192 191 188 181 174 166 159 152 141
124 120 137 150 139 123 119 112 109 106 102 103 94 90 91 93 99 96 101 107
106 111 112 106 107 117 131 145 142 133 118 87 59 50 57 67 94 109 125 124
141 141 137 140 158 198 212 212 210 206 205 201 198 200 205 212 212 209 200 184
140 142 143 135 130 126 129 131 139 145 152 160 161 161 161 162 162 161 162 159
151 135 122 122 140 158 164 174 178 179 186 189 189 182 180 177 168 159 155 146
132 130 147 154 142 133 118 104 88 73 63 52 58 75 87 105 118 145 133 143
148 155 164 165 157 171 181 174 153 123 112 100 55 67 93 99 101 125 129 131
140 140 138 145 162 202 210 210 210 212 213 212 208 202 201 205 212 208 204 193
127 130 134 133 128 125 120 124 131 142 151 157 160 159 160 159 161 160 160 159
153 136 122 116 150 158 164 174 179 175 183 186 184 180 175 178 168 160 154 148
138 139 152 155 147 145 128 109 98 80 71 59 66 90 96 98 90 75 58 49
45 49 58 54 60 62 65 47 33 17 35 49 73 103 123 116 120 131 135 140
141 139 137 142 170 203 208 206 207 211 216 214 213 205 201 204 208 210 210 204
117 126 129 131 124 122 116 118 125 139 147 156 160 160 161 158 157 158 159 155
154 140 127 118 140 165 160 164 176 178 183 187 183 177 176 179 172 164 157 150
141 141 150 152 145 145 140 115 103 101 96 77 59 48 44 39 46 52 58 72
80 88 90 90 98 109 126 147 139 85 68 100 125 137 138 140 135 136 140 147
141 136 138 149 185 207 205 203 209 217 221 220 214 208 201 200 203 206 209 214
124 131 135 132 124 115 114 112 120 134 143 151 157 158 157 156 149 151 157 152
149 146 133 116 121 158 167 163 168 171 172 174 173 171 168 174 172 163 158 150
145 136 137 143 153 153 145 131 115 107 110 106 106 97 87 83 80 95 114 127
133 136 138 141 139 148 160 159 154 138 129 141 142 142 145 144 140 139 146 146
136 129 132 152 192 203 206 206 213 218 221 224 220 211 203 198 196 199 201 210
130 138 141 135 127 120 115 114 119 136 145 154 156 157 154 151 146 147 154 154
155 153 151 131 122 144 164 160 163 170 167 167 171 171 168 171 171 161 159 151
143 142 141 148 151 149 150 142 132 116 110 111 115 120 129 130 138 141 147 153
156 156 152 150 149 147 146 145 149 156 163 162 148 146 150 151 143 139 140 135
128 128 134 167 197 204 207 209 216 220 222 222 218 211 205 201 196 199 201 211
128 135 137 131 123 116 117 110 113 129 138 146 153 153 150 147 141 142 148 147
148 150 152 145 136 147 159 156 159 163 163 163 167 165 162 164 166 162 160 154
148 140 136 141 144 144 147 142 137 130 119 116 112 116 137 157 171 179 175 170
166 164 161 156 155 155 159 164 165 169 163 159 150 147 149 149 152 139 133 128
133 134 149 182 203 205 212 212 215 213 212 212 214 212 210 205 204 203 204 206
126 132 138 134 124 118 119 111 112 127 137 145 152 154 147 141 131 132 137 148
150 154 155 158 155 158 170 158 157 157 159 156 153 156 153 157 156 158 154 149
148 143 139 136 146 141 142 144 141 139 132 125 123 124 129 149 156 167 171 168
161 154 143 140 132 134 139 138 135 136 131 133 137 146 153 154 152 137 123 120
131 135 157 191 197 201 214 211 212 201 195 196 201 204 204 203 201 200 200 205
120 135 141 136 128 122 117 109 111 121 137 146 147 149 145 134 128 129 136 146
151 153 153 153 153 152 165 163 155 155 155 152 150 151 150 154 155 158 154 152
150 139 132 129 131 132 131 135 137 135 137 132 123 126 138 148 149 155 150 142
132 126 122 122 117 114 116 116 111 112 121 125 135 151 154 150 147 132 122 121
132 145 176 201 204 210 219 212 206 190 175 177 186 188 190 191 197 200 197 204
132 140 144 138 128 123 116 111 112 118 136 147 147 150 145 136 135 135 142 148
150 153 153 154 153 151 161 166 158 155 152 148 148 147 148 148 146 151 154 152
148 144 135 128 121 120 127 129 129 132 136 141 144 149 154 155 147 146 140 128
117 108 103 105 102 103 108 108 109 115 117 138 144 146 155 151 147 137 127 128
133 153 186 199 211 214 211 200 187 171 159 164 174 181 182 184 191 200 200 199
144 146 143 142 132 124 115 110 112 124 139 150 150 153 146 136 132 135 144 151
154 151 155 153 158 151 155 166 155 150 142 138 144 139 144 139 141 143 146 146
144 137 128 121 112 118 122 123 131 144 157 165 164 158 163 159 153 151 144 135
123 111 107 101 101 101 110 116 129 137 137 146 150 152 155 154 147 138 135 139
138 168 197 200 213 211 203 184 175 157 150 148 157 165 169 170 182 194 202 201
157 152 148 142 134 127 119 116 121 135 143 153 152 151 148 139 132 136 144 153
154 154 147 125 89 67 100 146 142 144 147 144 142 135 131 124 128 129 134 137
136 133 128 119 112 117 119 129 144 158 165 170 170 165 162 156 153 152 149 146
142 132 129 126 123 121 124 130 138 145 148 153 152 152 157 158 151 144 140 143
149 179 202 204 211 206 187 163 154 154 148 148 152 162 167 169 181 194 204 203
162 157 150 139 134 130 127 127 134 146 153 159 158 157 153 143 136 135 143 147
128 92 61 42 33 42 74 138 145 147 145 139 137 133 126 124 126 128 129 135
139 133 129 123 114 118 123 133 152 162 170 171 171 170 166 163 161 155 153 150
144 142 140 142 142 141 138 142 148 152 150 152 155 153 155 157 153 143 140 143
156 188 199 207 207 191 175 154 150 147 144 146 156 167 177 180 190 195 201 205
155 148 142 139 134 132 131 133 142 153 155 158 158 158 154 145 134 130 133 124
77 46 33 18 22 44 65 130 145 147 148 141 128 125 123 116 115 116 117 127
137 133 133 129 122 124 129 134 149 158 166 168 172 173 167 167 167 166 163 161
164 165 160 157 155 149 153 150 154 156 152 153 154 152 160 161 154 144 140 143
169 195 203 214 201 178 158 143 140 142 141 146 153 164 175 181 192 199 204 204
152 148 142 138 134 130 127 134 143 153 155 157 158 156 157 149 141 143 146 123
79 50 38 30 29 40 51 116 147 143 146 139 123 113 111 111 110 112 121 126
134 135 138 134 138 130 130 131 151 161 164 167 166 165 164 165 166 163 163 163
163 163 160 155 151 145 143 147 153 156 153 155 153 148 155 152 151 140 135 148
177 196 210 216 205 180 157 142 141 139 140 143 149 162 166 177 188 196 199 205
