P3
#width height
5 4
#maximum intensity
255
#row 0
2 9 4 100 200 100 7 9 1 91 99 94 18 44 19
#row 1

72 

7 44 40 44 12 91 99 94 14 55 22 19 88 77
#row 2
44 12 22 91 99 94 78 44 19 191 215 222 177 199 121
#row 3
55 98 111 90 99 94 22 11 22 177 144 121 91 99 94
